<svg aria-hidden="true" style="position:absolute;width:0;height:0;overflow:hidden" xmlns="http://www.w3.org/2000/svg"><defs><symbol id="logo" viewBox="0 0 80 32"><path d="m6.285 3.298 1.87 5.132H4.408l1.878-5.132zM5.279.077l-.063.177-5.217 14.247h2.184l1.524-4.176h5.138l1.532 4.176h2.192L7.274.077H5.279zM17.629 7.513l2.593.771a2.36 2.36 0 0 1 1.155.732c.293.355.448.8.44 1.256-.018.63-.291 1.227-.758 1.661s-1.09.667-1.732.651c-.479.008-.951-.121-1.358-.369s-.732-.607-.936-1.033l-.11-.223-.236.1-1.642.701.11.239c.314.649.78 1.216 1.36 1.654s1.259.735 1.979.866c.72.131 1.462.092 2.164-.113s1.344-.571 1.874-1.067c.425-.398.762-.876.992-1.406s.347-1.1.344-1.676c-.002-.879-.291-1.735-.826-2.441s-1.286-1.225-2.144-1.481l-2.451-.771c-.393-.087-.744-.301-.999-.607s-.398-.686-.407-1.081a1.857 1.857 0 0 1 .652-1.387 2.475 2.475 0 0 1 1.634-.586c.428-.016.853.084 1.228.288s.687.504.901.868l.11.208 1.83-.771-.11-.239c-.374-.706-.944-1.293-1.645-1.693s-1.504-.596-2.314-.565a4.489 4.489 0 0 0-3.142 1.163c-.39.36-.7.795-.912 1.277s-.321 1.002-.321 1.527c.002.788.258 1.554.733 2.19s1.142 1.107 1.907 1.347zM36.076.077v6.164h-6.505V.077h-2.05v14.424h2.05V8.337h6.505v6.164h2.05V.077h-2.05zM42.4.077v14.424h10.582v-1.996h-8.54V.076h-2.043zM56.133.077v14.424h10.614v-1.896h-8.563V8.236h7.031V6.34h-7.031V1.979h8.563V.076H56.133zM77.572.077 74.43 4.816 71.295.077H68.86l4.557 6.904v7.52h2.05V6.965L80 .076h-2.428zM4.337 19.849a1.658 1.658 0 0 1 1.218-.522 1.662 1.662 0 0 1 1.218.522c.331.343.514.799.511 1.271.008.461-.17.906-.495 1.238s-.772.524-1.241.534h-.833l-.456-.547a1.856 1.856 0 0 1 .078-2.465v-.031zm-.409 5.209 3.457 4.222a4.964 4.964 0 0 1-2.184.547 3.18 3.18 0 0 1-1.964-.663c-.282-.218-.508-.497-.661-.815s-.228-.667-.219-1.019c-.005-.496.142-.981.422-1.394s.681-.732 1.149-.918v.038zm7.958.886v-.254H9.812v.254a3.15 3.15 0 0 1-.786 2.019l-2.797-3.252a4.107 4.107 0 0 0 2.035-1.079 3.501 3.501 0 0 0 1.068-2.504c.008-.995-.385-1.952-1.095-2.662s-1.678-1.116-2.692-1.128c-1.011.016-1.974.424-2.679 1.134s-1.095 1.665-1.084 2.657a3.527 3.527 0 0 0 .848 2.35c-.697.384-1.278.943-1.681 1.621s-.615 1.448-.613 2.232c-.011.621.118 1.236.375 1.803s.639 1.072 1.117 1.479a5.212 5.212 0 0 0 3.378 1.187 7.163 7.163 0 0 0 3.488-.979l.786.963h2.648l-1.83-2.211a5.221 5.221 0 0 0 1.571-3.606zM22.437 19.178a5.667 5.667 0 0 1 3.928 1.541l.181.177 1.446-1.41-.189-.177c-1.059-1.032-2.406-1.733-3.87-2.015s-2.982-.132-4.36.43-2.555 1.513-3.384 2.73c-.828 1.218-1.27 2.649-1.27 4.113s.442 2.895 1.27 4.113 2.006 2.168 3.384 2.73c1.378.562 2.895.712 4.36.43s2.811-.983 3.87-2.015l.189-.177-.181-.185-1.241-1.256-.173.17-.11.077c-.527.332-1.076.631-1.642.894a5.719 5.719 0 0 1-2.168.624c-.729.002-1.451-.138-2.125-.41s-1.287-.672-1.803-1.177c-.514-.501-.922-1.097-1.201-1.754a5.298 5.298 0 0 1 0-4.144 5.394 5.394 0 0 1 1.201-1.754 5.606 5.606 0 0 1 3.928-1.587zM38.496 29.997c-.729.004-1.452-.134-2.127-.407s-1.287-.674-1.801-1.181c-.514-.501-.922-1.097-1.201-1.754a5.298 5.298 0 0 1 0-4.144 5.394 5.394 0 0 1 1.201-1.754c1.043-1.02 2.455-1.593 3.928-1.593s2.885.573 3.928 1.593c.785.754 1.322 1.722 1.541 2.779s.11 2.153-.313 3.149c-.423.995-1.14 1.843-2.059 2.435s-1.998.899-3.097.884v-.008zm0-12.814c-1.49.014-2.943.46-4.176 1.282s-2.189 1.984-2.749 3.339-.699 2.842-.399 4.274 1.025 2.745 2.085 3.773 2.405 1.726 3.869 2.005c1.463.279 2.978.128 4.353-.436s2.55-1.514 3.375-2.731a7.304 7.304 0 0 0 1.264-4.109c-.003-.977-.203-1.945-.588-2.846s-.947-1.72-1.655-2.408c-.708-.688-1.547-1.232-2.47-1.601s-1.911-.556-2.907-.55zM51.01 19.772a.43.43 0 0 0 .3-.117.392.392 0 0 0 .124-.291c-.002-.11-.047-.214-.126-.292s-.186-.122-.298-.124h-.731v.817l.731.008zm.888 1.271h-.456l-.644-.871h-.519v.871h-.471v-2.489h1.202c.22 0 .432.085.589.236s.248.357.252.573a.828.828 0 0 1-.589.77l.636.909zm-1.147.64c.383-.003.757-.117 1.074-.328s.563-.509.708-.857a1.869 1.869 0 0 0-.431-2.068 1.965 1.965 0 0 0-2.113-.406 1.928 1.928 0 0 0-.868.701 1.875 1.875 0 0 0 .248 2.407 1.953 1.953 0 0 0 1.382.552zm0-4.261c.475.003.938.144 1.331.405s.699.63.878 1.061.225.905.13 1.361c-.095.456-.325.875-.662 1.203s-.765.551-1.231.641c-.466.09-.948.042-1.387-.137s-.813-.481-1.076-.868a2.313 2.313 0 0 1-.217-2.213 2.384 2.384 0 0 1 1.309-1.276c.293-.118.607-.178.924-.177z"/></symbol><symbol id="menu" viewBox="0 0 32 32"><path d="M9.6 12.8h12.8v1.28H9.6V12.8zM9.6 17.92h12.8v1.28H9.6v-1.28z"/></symbol></defs></svg>